<?xml version="1.0" standalone="no"?>
<!DOCTYPE svg PUBLIC "-//W3C//DTD SVG 20010904//EN"
 "http://www.w3.org/TR/2001/REC-SVG-20010904/DTD/svg10.dtd">
<svg version="1.0" xmlns="http://www.w3.org/2000/svg"
 width="182.000000pt" height="337.000000pt" viewBox="0 0 182.000000 337.000000"
 preserveAspectRatio="xMidYMid meet">
<metadata>
Created by potrace 1.12, written by Peter Selinger 2001-2015
</metadata>
<g transform="translate(0.000000,337.000000) scale(0.100000,-0.100000)"
fill="#000000" stroke="none">
<path d="M794 3302 c-104 -37 -205 -133 -259 -248 -70 -149 -70 -374 1 -374
36 0 51 -24 63 -107 6 -43 16 -82 21 -87 6 -6 10 -33 10 -61 0 -64 26 -114 75
-141 41 -24 122 -39 139 -26 17 12 153 16 141 4 -5 -6 -19 -13 -30 -16 -11 -3
-2 -3 20 -1 70 6 139 27 164 49 39 35 73 96 67 120 -5 19 -4 20 8 4 12 -17 15
-17 47 5 62 41 103 165 64 197 -16 13 -48 6 -70 -16 -8 -9 -15 -11 -15 -5 0 6
18 24 40 40 21 15 37 30 35 33 -3 3 2 22 11 43 32 78 14 233 -43 353 -33 72
-149 189 -218 222 -69 32 -199 38 -271 12z m181 -11 c75 -34 101 -64 115 -133
8 -45 9 -63 1 -66 -6 -2 -9 -7 -7 -11 3 -4 1 -13 -5 -21 -6 -11 -9 -6 -9 18 0
39 -19 80 -51 107 -20 17 -20 16 3 -12 15 -18 30 -42 33 -54 11 -35 -4 -87
-36 -124 -28 -32 -33 -34 -77 -29 -91 11 -261 -41 -301 -91 -26 -33 -36 -36
-90 -19 -49 14 -62 26 -41 39 5 3 7 11 4 19 -3 7 0 35 6 62 49 222 291 390
455 315z m-127 -521 c5 -14 115 -13 129 1 18 18 103 12 124 -7 18 -16 24 -12
20 10 -1 5 4 4 12 -2 13 -11 35 -10 70 4 17 6 18 2 12 -52 -4 -32 -13 -85 -21
-117 -8 -32 -14 -70 -14 -83 0 -13 -3 -23 -7 -22 -5 0 -16 -2 -26 -7 -9 -4
-25 -5 -35 -3 -15 4 -21 -4 -31 -40 -25 -93 -74 -132 -168 -132 -81 0 -122 23
-152 86 -25 51 -83 99 -107 90 -10 -4 -14 3 -14 22 0 15 -7 59 -15 97 -8 39
-15 86 -15 106 l0 36 52 -5 c45 -4 50 -3 45 12 -4 10 -3 15 3 11 5 -3 18 -1
27 5 21 12 106 5 111 -10z"/>
<path d="M985 2103 c-20 -11 -59 -17 -112 -19 -45 -2 -96 -9 -115 -17 -18 -7
-59 -24 -91 -37 -31 -13 -72 -37 -90 -52 l-32 -29 44 31 c24 16 55 30 69 30
24 0 24 -2 18 -51 -7 -54 -42 -155 -56 -164 -4 -3 -5 10 -1 28 15 70 1 70 -51
0 -28 -37 -72 -93 -97 -124 -25 -31 -58 -80 -73 -108 -21 -38 -34 -51 -50 -51
-18 0 -11 -7 27 -29 28 -16 58 -38 69 -49 20 -24 15 -52 -9 -52 -12 0 -15 -5
-9 -22 4 -13 13 -45 21 -73 12 -45 13 -46 8 -10 -3 27 0 44 11 57 11 11 15 28
12 50 -4 24 3 51 25 96 32 64 53 82 40 35 -11 -43 -8 -214 5 -259 11 -37 9
-57 -17 -165 -16 -68 -46 -205 -66 -304 -64 -310 -86 -375 -137 -391 -43 -13
-88 -66 -104 -120 -17 -60 -12 -125 12 -145 8 -6 14 -19 14 -29 0 -26 63 -40
179 -40 99 0 152 12 189 42 8 7 30 14 48 15 42 2 74 19 74 39 0 8 7 28 15 45
11 20 16 59 16 127 0 124 47 447 95 655 15 63 18 67 44 67 16 0 31 -4 34 -8 9
-15 54 -251 81 -422 14 -90 28 -218 29 -282 3 -88 8 -124 20 -143 9 -13 16
-33 16 -44 0 -21 17 -29 72 -35 14 -1 37 -9 50 -18 12 -8 38 -20 57 -26 43
-15 228 -16 269 -1 65 22 96 151 56 234 -18 40 -65 82 -97 90 -20 5 -49 42
-68 86 -4 8 -26 105 -49 215 -22 109 -57 267 -76 349 -35 146 -35 152 -23 232
7 50 10 121 6 180 l-6 98 35 -68 c27 -53 34 -76 29 -98 -4 -18 -2 -36 5 -44
16 -19 30 -19 30 0 0 8 -4 15 -10 15 -5 0 -10 12 -10 27 0 18 13 38 43 66 23
22 35 37 27 35 -10 -4 -26 13 -47 51 -35 60 -39 81 -22 112 10 19 10 19 38 0
16 -11 41 -46 57 -76 29 -56 29 -56 9 -72 l-20 -16 20 7 c17 6 110 26 121 26
9 0 -98 164 -154 237 -116 153 -184 204 -379 288 -34 14 -41 21 -32 32 15 18
0 16 -36 -4z m-155 -119 c0 5 7 3 15 -4 8 -7 15 -9 15 -4 0 5 6 2 13 -6 7 -9
22 -16 34 -17 23 -2 51 -26 78 -66 14 -23 14 -25 0 -31 -9 -3 -52 -6 -95 -6
l-78 0 -4 68 c-5 71 -1 93 13 71 5 -8 9 -10 9 -5z m-408 -1609 c10 -6 20 -25
24 -42 5 -26 1 -37 -19 -57 -52 -52 -137 -22 -137 48 0 64 67 90 132 51z"/>
</g>
</svg>
