<?xml version="1.0" standalone="no"?>
<!DOCTYPE svg PUBLIC "-//W3C//DTD SVG 20010904//EN"
 "http://www.w3.org/TR/2001/REC-SVG-20010904/DTD/svg10.dtd">
<svg version="1.0" xmlns="http://www.w3.org/2000/svg"
 width="191.000000pt" height="296.000000pt" viewBox="0 0 191.000000 296.000000"
 preserveAspectRatio="xMidYMid meet">
<metadata>
Created by potrace 1.12, written by Peter Selinger 2001-2015
</metadata>
<g transform="translate(0.000000,296.000000) scale(0.100000,-0.100000)"
fill="#000000" stroke="none">
<path d="M835 2947 c-81 -27 -132 -61 -210 -141 -114 -115 -175 -242 -175
-360 0 -56 26 -121 59 -150 18 -16 21 -30 21 -92 0 -40 5 -85 11 -101 l11 -28
15 35 c8 19 21 42 30 52 12 13 13 30 5 95 -5 43 -7 81 -5 86 2 4 33 7 69 7 39
0 63 4 59 9 -7 13 27 31 57 31 18 0 20 2 8 10 -31 20 6 9 40 -12 27 -16 53
-22 113 -23 51 -1 77 2 77 9 0 6 4 6 9 -2 6 -11 16 -8 46 12 21 14 45 25 54
25 11 -1 10 -3 -4 -6 -16 -5 -14 -7 14 -17 19 -6 37 -17 39 -25 3 -9 0 -11 -8
-6 -7 5 -11 4 -8 -1 4 -5 28 -8 55 -8 58 2 75 6 86 19 5 6 6 -33 2 -87 -5 -85
-4 -100 14 -134 12 -21 21 -43 21 -49 0 -10 46 -35 65 -35 7 0 26 22 44 50 26
40 32 58 29 92 -3 37 -7 43 -27 46 -17 3 -30 -4 -43 -20 -13 -17 -18 -19 -18
-7 0 9 16 32 35 52 31 32 33 37 16 37 -20 0 -20 0 -1 43 56 121 -6 302 -156
454 -110 113 -180 146 -314 150 -59 2 -110 -2 -135 -10z m177 -89 c78 -23 125
-112 97 -185 l-14 -36 -139 -1 c-159 -1 -166 2 -166 84 0 107 106 173 222 138z"/>
<path d="M860 2760 c-35 -70 -37 -86 -11 -100 18 -9 22 -5 37 50 l17 61 26
-25 27 -26 25 26 25 25 17 -61 c12 -42 21 -59 30 -54 36 21 37 25 7 82 -47 92
-45 91 -78 59 l-28 -27 -24 25 c-13 14 -27 25 -32 25 -4 0 -21 -27 -38 -60z"/>
<path d="M1232 2135 c-13 -14 -41 -30 -63 -36 -33 -10 -41 -18 -49 -49 -11
-41 -51 -83 -93 -99 -36 -14 -108 -14 -144 0 -42 16 -92 69 -99 105 -5 26 -12
34 -35 39 -15 4 -44 17 -63 30 -41 28 -48 22 -49 -42 0 -41 4 -50 31 -73 18
-15 32 -31 32 -36 0 -31 110 -89 118 -64 2 6 17 2 35 -9 63 -38 206 -37 255 2
8 6 23 12 34 14 28 4 58 22 58 34 0 5 19 28 41 50 40 39 41 43 37 90 -7 64
-17 74 -46 44z"/>
<path d="M642 1785 c-41 -20 -97 -57 -129 -87 -86 -82 -293 -330 -293 -351 0
-4 17 -7 38 -7 45 0 128 -38 160 -73 l23 -25 -21 -15 -21 -14 21 -74 c25 -91
25 -111 0 -176 -11 -29 -16 -53 -11 -53 12 0 43 80 44 112 0 12 -3 46 -7 74
-6 42 -5 52 8 57 10 4 16 19 16 42 0 30 35 105 50 105 3 0 6 -33 6 -74 1 -40
7 -96 13 -124 11 -44 9 -70 -14 -209 -74 -434 -101 -528 -158 -548 -70 -25
-126 -132 -112 -215 13 -75 70 -108 195 -111 45 -1 50 -3 30 -10 -17 -6 -1 -8
52 -5 58 2 90 9 131 29 30 15 63 27 75 27 32 0 72 18 72 33 0 7 9 30 20 52 17
33 19 52 14 146 -6 112 15 282 56 474 11 49 20 91 20 93 0 2 15 2 32 0 31 -3
34 -6 50 -68 10 -36 29 -139 43 -229 21 -132 25 -185 20 -273 -4 -91 -2 -114
12 -141 9 -18 17 -39 17 -47 1 -18 43 -40 77 -40 15 0 47 -11 70 -25 24 -14
53 -24 64 -24 11 0 1 7 -23 16 -24 8 -42 17 -39 19 2 2 38 -3 81 -11 43 -8 94
-16 114 -17 21 -1 3 -4 -38 -8 l-75 -6 105 -2 c121 -2 180 10 180 37 0 10 8
26 19 35 42 38 31 162 -20 221 -16 18 -42 38 -58 44 -64 27 -80 73 -146 440
-42 231 -45 273 -27 388 7 45 10 93 6 107 -9 38 8 32 35 -12 l24 -39 43 43
c46 44 114 74 171 74 18 0 33 3 33 7 0 21 -214 277 -299 356 -28 27 -86 64
-127 84 l-76 36 -77 -39 c-71 -36 -82 -39 -161 -39 -78 1 -91 3 -157 38 -40
20 -74 37 -76 37 -1 0 -35 -16 -75 -35z m-187 -1459 c47 -20 59 -46 44 -96
-17 -57 -51 -85 -104 -85 -35 0 -50 6 -74 29 -52 50 -36 122 33 152 40 17 59
17 101 0z m1012 -11 c25 -17 35 -62 21 -90 -6 -11 -24 -35 -41 -52 -40 -43
-94 -45 -144 -7 -32 24 -73 79 -73 97 0 4 28 21 63 37 69 33 139 39 174 15z"/>
</g>
</svg>
